HIERARCHY
ROOT Hips
{
	OFFSET 39.569801 -4.357766 98.838997
	CHANNELS 6 Xposition Yposition Zposition Xrotation Yrotation Zrotation
	JOINT spine
	{
		OFFSET 0.000000 -0.477353 8.301033
		CHANNELS 3 Xrotation Yrotation Zrotation
		JOINT spine1
		{
			OFFSET 0.000000 -0.000001 10.456497
			CHANNELS 3 Xrotation Yrotation Zrotation
			JOINT spine2
			{
				OFFSET 0.000000 -0.000002 10.019203
				CHANNELS 3 Xrotation Yrotation Zrotation
				JOINT Neck
				{
					OFFSET 0.000000 -1.226414 25.723503
					CHANNELS 3 Xrotation Yrotation Zrotation
					JOINT Head
					{
						OFFSET 0.000000 -0.000001 7.771744
						CHANNELS 3 Xrotation Yrotation Zrotation
						End Site
						{
							OFFSET 0.000000 6.203937 18.811996
						}
					}
				}
				JOINT RightShoulder
				{
					OFFSET -4.218800 0.587438 10.820000
					CHANNELS 3 Xrotation Yrotation Zrotation
					JOINT RightArm
					{
						OFFSET 0.000000 -0.000002 14.191406
						CHANNELS 3 Xrotation Yrotation Zrotation
						JOINT RightArmRoll
						{
							OFFSET 0.000000 -0.000001 7.164093
							CHANNELS 3 Xrotation Yrotation Zrotation
							JOINT RightForeArm
							{
								OFFSET 0.000000 -0.000003 20.866501
								CHANNELS 3 Xrotation Yrotation Zrotation
								JOINT RightForeArmRoll
								{
									OFFSET 0.000000 -0.000001 8.039215
									CHANNELS 3 Xrotation Yrotation Zrotation
									JOINT RightHand
									{
										OFFSET 0.000000 -0.000003 16.132996
										CHANNELS 3 Xrotation Yrotation Zrotation
										End Site
										{
											OFFSET 0.000000 0.000000 0.100006
										}
									}
								}
							}
						}
					}
				}
				JOINT LeftShoulder
				{
					OFFSET 4.218800 0.587438 10.820000
					CHANNELS 3 Xrotation Yrotation Zrotation
					JOINT LeftArm
					{
						OFFSET 0.000000 -0.000002 14.191406
						CHANNELS 3 Xrotation Yrotation Zrotation
						JOINT LeftArmRoll
						{
							OFFSET 0.000000 -0.000001 7.164078
							CHANNELS 3 Xrotation Yrotation Zrotation
							JOINT LeftForeArm
							{
								OFFSET 0.000000 -0.000003 20.866501
								CHANNELS 3 Xrotation Yrotation Zrotation
								JOINT LeftForeArmRoll
								{
									OFFSET 0.000000 -0.000001 8.039215
									CHANNELS 3 Xrotation Yrotation Zrotation
									JOINT LeftHand
									{
										OFFSET 0.000000 -0.000003 16.132996
										CHANNELS 3 Xrotation Yrotation Zrotation
										End Site
										{
											OFFSET 0.000000 0.000000 0.100006
										}
									}
								}
							}
						}
					}
				}
			}
		}
	}
	JOINT RightUpLeg
	{
		OFFSET -7.357731 1.131810 -1.349213
		CHANNELS 3 Xrotation Yrotation Zrotation
		JOINT RightUpLegRoll
		{
			OFFSET 0.000000 -0.000003 18.916801
			CHANNELS 3 Xrotation Yrotation Zrotation
			JOINT RightLeg
			{
				OFFSET 0.000000 0.000004 -23.425598
				CHANNELS 3 Xrotation Yrotation Zrotation
				JOINT RightLegRoll
				{
					OFFSET 0.000000 -0.000004 23.502304
					CHANNELS 3 Xrotation Yrotation Zrotation
					JOINT RightFoot
					{
						OFFSET 0.000000 -0.000003 19.561707
						CHANNELS 3 Xrotation Yrotation Zrotation
						JOINT RightToeBase
						{
							OFFSET 0.000000 -0.000003 16.352600
							CHANNELS 3 Xrotation Yrotation Zrotation
							End Site
							{
								OFFSET 0.006931 0.912836 7.919434
							}
						}
					}
				}
			}
		}
	}
	JOINT LeftUpLeg
	{
		OFFSET 7.357731 1.131810 -1.349213
		CHANNELS 3 Xrotation Yrotation Zrotation
		JOINT LeftUpLegRoll
		{
			OFFSET 0.000000 -0.000003 18.916901
			CHANNELS 3 Xrotation Yrotation Zrotation
			JOINT LeftLeg
			{
				OFFSET 0.000000 -0.000004 23.425499
				CHANNELS 3 Xrotation Yrotation Zrotation
				JOINT LeftLegRoll
				{
					OFFSET 0.000000 -0.000004 23.719498
					CHANNELS 3 Xrotation Yrotation Zrotation
					JOINT LeftFoot
					{
						OFFSET 0.000000 -0.000003 19.344406
						CHANNELS 3 Xrotation Yrotation Zrotation
						JOINT LeftToeBase
						{
							OFFSET 0.000000 -0.000003 16.352600
							CHANNELS 3 Xrotation Yrotation Zrotation
							End Site
							{
								OFFSET -0.031063 0.912836 7.919434
							}
						}
					}
				}
			}
		}
	}
}
MOTION
Frames: 4
Frame Time: 0.041667
39.405102 -4.537523 98.835289 -0.345513 -1.383255 3.070019 -2.639802 0.084230 0.126128 -1.279966 0.166661 0.252986 0.365108 0.169674 0.250998 37.233834 4.070054 -1.948395 -20.992699 -5.362743 -1.655492 -16.403235 -26.220347 -18.726471 -131.359100 -188.246215 -78.796361 0.000006 0.000000 -0.000000 61.991760 14.450017 6.749318 -0.000001 -0.000003 -3.003870 -5.000228 -7.998782 0.000143 -11.001364 32.614758 11.339029 -136.037342 175.889843 78.257043 0.000004 -0.000002 -0.000000 61.520163 -7.179552 -2.148060 0.000002 0.000002 3.000002 -5.000239 7.998780 -0.000160 -0.511585 -175.447178 1.192339 -179.999991 0.000005 -1.039003 174.296524 -3.951401 -0.618324 -0.000003 0.000001 0.067498 69.357982 6.867059 2.189608 25.456957 -7.355616 0.000000 -0.103484 176.870016 1.805431 -0.000005 -0.000005 -1.079430 -6.983354 3.477633 0.823506 -0.000008 0.000001 -0.072848 67.919005 -6.922146 -2.123890 25.456953 7.355613 -0.000010 
39.402500 -4.538955 98.835495 -0.345987 -1.386525 3.051728 -2.639542 0.085635 0.125158 -1.279875 0.170003 0.251499 0.365193 0.172978 0.249486 37.258364 4.063312 -1.940956 -21.017399 -5.336923 -1.647069 -16.377211 -26.195089 -18.687838 -131.342297 -188.460506 -78.807324 0.000000 0.000001 0.000001 62.484285 14.344997 6.806129 0.000002 -0.000003 -3.003870 -5.000229 -7.998782 0.000138 -10.989990 32.547784 11.318185 -136.004694 176.087481 78.051953 0.000004 -0.000002 -0.000002 61.892490 -7.110068 -2.229670 0.000000 0.000002 3.000005 -5.000241 7.998780 -0.000159 -0.513894 -175.442179 1.198422 -179.999991 0.000005 -1.039003 174.294939 -3.957359 -0.618031 -0.000003 0.000001 0.067456 69.355865 6.867064 2.189640 25.456959 -7.355616 0.000001 -0.099298 176.872994 1.809008 -0.000005 -0.000005 -1.079579 -6.983815 3.475039 0.823974 -0.000008 0.000001 -0.072950 67.920672 -6.922105 -2.124077 25.456959 7.355613 -0.000010 
39.399605 -4.540844 98.835190 -0.346501 -1.389755 3.033456 -2.639175 0.087005 0.124144 -1.279506 0.173253 0.249907 0.365569 0.176191 0.247868 37.289500 4.037487 -1.925009 -21.050716 -5.282248 -1.631757 -16.351065 -26.170423 -18.649022 -131.327558 -188.673553 -78.822036 0.000002 -0.000001 0.000000 62.972036 14.241483 6.863649 0.000003 -0.000002 -3.003870 -5.000229 -7.998781 0.000140 -10.977976 32.482450 11.296538 -135.975105 176.283071 77.851405 0.000002 0.000001 -0.000003 62.262181 -7.040495 -2.311648 0.000001 0.000002 3.000002 -5.000238 7.998781 -0.000159 -0.516218 -175.437193 1.204222 -179.999991 0.000005 -1.039003 174.293355 -3.963329 -0.618736 -0.000003 0.000001 0.067415 69.353836 6.867005 2.189854 25.456957 -7.355615 0.000000 -0.094966 176.875999 1.812426 -0.000005 -0.000004 -1.079740 -6.984006 3.472546 0.824426 -0.000008 0.000001 -0.073052 67.922236 -6.922053 -2.124370 25.456957 7.355613 -0.000010 
39.398300 -4.544477 98.837296 -0.347079 -1.392925 3.015253 -2.638685 0.088332 0.123085 -1.278786 0.176388 0.248198 0.366281 0.179288 0.246135 37.328459 3.988768 -1.898837 -21.094004 -5.193452 -1.608166 -16.325320 -26.146096 -18.610705 -131.314662 -188.885521 -78.839726 0.000002 0.000000 -0.000000 63.453653 14.140334 6.921620 0.000002 -0.000006 -3.003869 -5.000227 -7.998782 0.000137 -10.965392 32.418759 11.274189 -135.948809 176.476584 77.655747 0.000001 -0.000001 -0.000001 62.628197 -6.971282 -2.393571 0.000001 0.000002 3.000000 -5.000241 7.998781 -0.000158 -0.518536 -175.433190 1.209652 -179.999991 0.000005 -1.039003 174.291743 -3.969285 -0.619443 -0.000003 0.000001 0.067374 69.351931 6.866986 2.189870 25.456957 -7.355615 0.000000 -0.090483 176.880002 1.815596 -0.000005 -0.000005 -1.079890 -6.983990 3.470222 0.824861 -0.000008 0.000001 -0.073153 67.923595 -6.922021 -2.124477 25.456953 7.355613 -0.000011 
